<mxfile host="65bd71144e">
    <diagram id="Admc3t4VhZlxrnphaC2E" name="第 1 页">
        <mxGraphModel dx="407" dy="377" grid="1" gridSize="10" guides="1" tooltips="1" connect="1" arrows="1" fold="1" page="1" pageScale="1" pageWidth="827" pageHeight="1169" background="#E6E6E6" math="0" shadow="0">
            <root>
                <mxCell id="0"/>
                <mxCell id="1" parent="0"/>
                <mxCell id="2" value="" style="rounded=0;whiteSpace=wrap;html=1;" vertex="1" parent="1">
                    <mxGeometry x="70" y="120" width="280" height="330" as="geometry"/>
                </mxCell>
                <mxCell id="4" value="page" style="text;html=1;align=center;verticalAlign=middle;whiteSpace=wrap;rounded=0;" vertex="1" parent="1">
                    <mxGeometry x="360" y="130" width="60" height="30" as="geometry"/>
                </mxCell>
                <mxCell id="5" value="navbar" style="rounded=0;whiteSpace=wrap;html=1;" vertex="1" parent="1">
                    <mxGeometry x="80" y="130" width="260" height="30" as="geometry"/>
                </mxCell>
                <mxCell id="6" value="content" style="rounded=0;whiteSpace=wrap;html=1;strokeColor=#FF3333;" vertex="1" parent="1">
                    <mxGeometry x="80" y="170" width="260" height="270" as="geometry"/>
                </mxCell>
            </root>
        </mxGraphModel>
    </diagram>
</mxfile>